<svg xmlns="http://www.w3.org/2000/svg" version="1.0" style="" preserveAspectRatio="xMidYMid meet" viewBox="293.62 186.47 200.66 53.03">
<g fill="#3E70ACFE" stroke="#3E70ACFE">
<path d="M 476.000 188.354 C 476.000 188.827 475.374 188.974 474.610 188.680 C 472.952 188.044 468.704 191.712 469.537 193.060 C 469.856 193.577 469.669 194.000 469.121 194.000 C 467.932 194.000 467.942 193.906 467.350 210.988 C 466.864 225.008 467.840 232.048 470.709 235.226 C 471.566 236.176 472.657 236.712 473.134 236.417 C 473.610 236.123 474.000 236.407 474.000 237.048 C 474.000 237.689 474.675 237.955 475.500 237.638 C 476.325 237.322 477.000 237.499 477.000 238.031 C 477.000 239.323 483.709 239.280 484.510 237.984 C 484.856 237.425 485.577 237.239 486.113 237.570 C 486.649 237.901 488.251 237.346 489.673 236.336 L 492.258 234.500 489.590 235.500 C 487.038 236.457 487.051 236.416 489.890 234.576 C 491.522 233.519 493.110 231.719 493.418 230.576 C 493.727 229.434 493.871 220.538 493.740 210.807 C 493.504 193.408 493.459 193.075 491.023 190.807 C 489.661 189.538 488.199 188.444 487.773 188.375 C 487.348 188.306 486.888 188.154 486.750 188.037 C 485.946 187.350 476.000 187.643 476.000 188.354 M 484.000 193.032 C 484.275 193.141 484.950 193.335 485.500 193.463 C 486.050 193.591 486.152 193.764 485.727 193.848 C 485.302 193.931 485.671 195.094 486.547 196.431 C 487.814 198.365 488.136 201.709 488.121 212.777 C 488.100 228.615 488.043 229.094 486.000 230.620 C 483.613 232.401 477.145 232.820 476.536 231.232 C 476.249 230.485 475.566 230.150 475.019 230.489 C 474.444 230.844 474.275 230.448 474.618 229.552 C 474.946 228.698 474.828 228.000 474.357 228.000 C 473.886 228.000 473.500 221.025 473.500 212.500 C 473.500 203.975 473.807 197.000 474.183 197.000 C 474.558 197.000 475.153 196.093 475.505 194.985 C 475.856 193.877 476.531 193.210 477.003 193.502 C 477.475 193.794 478.099 193.649 478.389 193.180 C 478.834 192.460 482.328 192.367 484.000 193.032 "/></g>
<g fill="#3E70ACFE" stroke="#3E70ACFE">
<path d="M 335.000 188.313 C 335.000 188.808 334.373 188.973 333.606 188.679 C 331.477 187.862 328.022 192.219 327.333 196.592 C 326.563 201.469 326.431 223.288 327.142 228.008 C 328.067 234.146 332.261 239.193 335.021 237.487 C 335.559 237.154 336.000 237.359 336.000 237.941 C 336.000 239.088 341.125 239.341 344.739 238.373 C 345.970 238.043 346.684 237.297 346.325 236.716 C 345.926 236.071 346.283 235.895 347.242 236.263 C 348.158 236.614 349.581 236.016 350.656 234.828 C 352.294 233.019 352.520 230.713 352.676 214.181 C 352.773 203.946 352.555 195.105 352.192 194.535 C 351.572 193.565 351.441 193.159 351.125 191.241 C 351.056 190.823 349.991 189.851 348.758 189.081 C 346.265 187.524 335.000 186.895 335.000 188.313 M 342.660 193.326 C 343.021 193.687 343.920 193.481 344.658 192.869 C 345.719 191.989 346.000 192.270 346.000 194.211 C 346.000 195.562 346.270 196.937 346.600 197.267 C 347.128 197.795 347.135 223.236 346.608 228.500 C 346.365 230.927 344.926 231.677 339.500 232.207 C 336.617 232.489 332.463 229.871 333.750 228.583 C 334.071 228.263 333.921 228.000 333.417 228.001 C 332.460 228.001 332.505 198.161 333.464 197.203 C 333.759 196.908 334.000 195.856 334.000 194.865 C 334.000 193.674 334.509 193.258 335.500 193.638 C 336.325 193.955 337.000 193.747 337.000 193.175 C 337.000 192.081 341.535 192.202 342.660 193.326 "/></g>
<g fill="#3E70ACFE" stroke="#3E70ACFE">
<path d="M 406.000 188.000 C 406.825 188.533 407.006 188.976 406.402 188.985 C 405.137 189.002 404.998 234.711 406.257 236.660 C 407.208 238.131 416.028 238.099 417.942 236.617 C 419.042 235.764 419.206 235.796 418.633 236.750 C 418.127 237.593 418.572 238.000 420.000 238.000 C 421.165 238.000 421.843 237.555 421.507 237.011 C 421.171 236.468 421.515 236.261 422.272 236.551 C 423.699 237.098 428.913 232.573 429.114 230.614 C 429.177 230.001 429.497 228.150 429.826 226.500 C 430.959 220.815 430.425 195.642 429.163 195.221 C 428.516 195.005 428.242 194.418 428.553 193.915 C 428.864 193.412 428.615 193.000 428.000 193.000 C 427.385 193.000 427.131 192.597 427.435 192.105 C 427.979 191.225 425.220 189.530 423.750 189.841 C 423.338 189.929 423.000 189.564 423.000 189.031 C 423.000 188.499 422.371 188.304 421.601 188.600 C 420.832 188.895 419.905 188.656 419.542 188.068 C 419.171 187.468 415.729 187.007 411.691 187.015 C 406.679 187.026 404.955 187.324 406.000 188.000 M 424.414 211.500 C 424.476 221.309 424.134 225.889 423.273 226.799 C 422.597 227.514 421.652 228.799 421.173 229.655 C 420.663 230.567 418.377 231.429 415.651 231.736 L 411.000 232.260 411.000 213.130 L 411.000 194.000 415.300 194.000 C 417.665 194.000 420.140 194.540 420.800 195.200 C 421.733 196.133 422.014 195.967 422.063 194.450 C 422.116 192.817 422.306 192.907 423.226 195.000 C 423.837 196.389 424.364 203.719 424.414 211.500 "/></g>
<g fill="#3E70ACFE" stroke="#3E70ACFE">
<path d="M 299.468 188.771 C 298.043 189.517 297.239 190.578 297.625 191.202 C 298.039 191.872 297.852 192.027 297.153 191.594 C 294.899 190.202 294.095 195.996 294.125 213.400 L 294.156 230.919 297.498 234.568 C 299.336 236.575 301.326 237.916 301.920 237.549 C 302.514 237.182 303.000 237.359 303.000 237.941 C 303.000 238.523 304.800 239.000 307.000 239.000 C 309.258 239.000 311.000 238.518 311.000 237.893 C 311.000 237.284 311.675 237.045 312.500 237.362 C 313.325 237.678 314.000 237.475 314.000 236.910 C 314.000 236.344 314.390 236.123 314.866 236.417 C 316.419 237.377 318.978 233.448 319.748 228.924 C 320.161 226.491 320.368 221.494 320.206 217.820 L 319.912 211.141 312.706 211.409 C 305.905 211.663 305.486 211.814 305.250 214.096 C 305.014 216.384 305.247 216.495 309.593 216.149 L 314.185 215.784 313.859 223.618 C 313.502 232.155 313.575 232.067 306.699 232.317 C 304.312 232.403 302.552 231.905 301.965 230.977 C 301.451 230.165 300.986 229.950 300.932 230.500 C 300.878 231.050 300.658 230.375 300.444 229.000 C 300.002 226.166 300.010 199.819 300.454 196.000 C 300.790 193.109 301.160 192.467 301.461 194.250 C 301.605 195.101 301.888 195.021 302.347 194.000 C 302.827 192.930 304.379 192.553 307.760 192.686 C 310.367 192.789 312.093 192.901 311.595 192.936 C 311.097 192.971 311.403 193.788 312.275 194.752 C 313.147 195.715 314.005 198.528 314.180 201.002 C 314.465 205.010 314.785 205.533 317.114 205.803 C 319.671 206.100 319.728 205.978 319.765 200.122 C 319.791 195.857 319.395 193.982 318.386 193.595 C 317.607 193.296 316.520 191.869 315.971 190.424 C 315.246 188.516 314.505 187.976 313.267 188.451 C 312.328 188.811 311.922 188.744 312.364 188.303 C 313.723 186.943 302.155 187.363 299.468 188.771 "/></g>
<g fill="#3E70ACFE" stroke="#3E70ACFE">
<path d="M 446.736 187.598 C 446.407 187.927 446.380 188.827 446.676 189.598 C 446.972 190.369 446.667 191.000 445.999 191.000 C 445.191 191.000 445.001 191.867 445.432 193.584 C 445.904 195.465 445.751 195.964 444.870 195.420 C 444.038 194.906 443.860 195.192 444.299 196.336 C 444.650 197.252 444.454 198.000 443.862 198.000 C 443.270 198.000 443.040 198.661 443.349 199.468 C 443.659 200.275 443.452 201.221 442.888 201.569 C 442.325 201.917 442.100 202.817 442.388 203.569 C 442.677 204.321 442.452 205.221 441.888 205.569 C 441.325 205.917 441.100 206.817 441.388 207.569 C 441.677 208.321 441.470 209.209 440.930 209.543 C 440.389 209.877 440.031 210.679 440.134 211.325 C 440.237 211.971 439.789 213.793 439.139 215.373 C 438.488 216.952 437.772 219.652 437.546 221.373 C 437.320 223.093 437.036 224.725 436.915 225.000 C 436.794 225.275 436.609 225.950 436.504 226.500 C 436.398 227.050 435.779 228.800 435.128 230.389 C 434.477 231.977 434.178 233.511 434.463 233.797 C 434.749 234.082 434.472 234.931 433.849 235.682 C 433.225 236.434 433.004 237.337 433.357 237.691 C 433.711 238.044 434.000 237.753 434.000 237.044 C 434.000 236.048 434.320 236.021 435.411 236.926 C 436.392 237.740 437.022 237.773 437.480 237.032 C 437.842 236.447 438.517 236.202 438.980 236.488 C 439.668 236.913 440.916 232.574 441.565 227.500 C 441.999 224.112 443.151 223.471 448.480 223.651 C 454.521 223.856 456.000 224.428 456.000 226.559 C 456.000 227.352 456.338 228.000 456.750 228.001 C 457.163 228.001 457.609 229.888 457.743 232.193 C 458.036 237.264 459.285 238.838 461.534 236.972 C 462.894 235.843 463.297 235.857 464.061 237.064 C 464.631 237.965 464.975 238.057 464.985 237.309 C 464.993 236.654 464.570 235.852 464.044 235.527 C 463.518 235.202 463.323 234.321 463.612 233.569 C 463.900 232.817 463.648 231.901 463.052 231.532 C 462.455 231.163 462.226 230.443 462.543 229.931 C 462.859 229.419 462.684 229.000 462.153 229.000 C 461.622 229.000 461.397 228.199 461.653 227.220 C 461.909 226.242 461.571 224.104 460.903 222.470 C 460.234 220.837 459.786 218.713 459.907 217.750 C 460.027 216.788 459.621 216.000 459.004 216.000 C 458.387 216.000 458.172 215.530 458.527 214.956 C 458.882 214.382 458.645 213.277 458.000 212.500 C 457.355 211.723 457.118 210.618 457.473 210.044 C 457.828 209.470 457.656 209.000 457.090 209.000 C 456.525 209.000 456.304 208.371 456.600 207.601 C 456.895 206.832 456.698 205.931 456.162 205.600 C 455.626 205.269 455.423 204.098 455.711 202.999 C 456.014 201.837 455.741 201.000 455.058 201.000 C 454.411 201.000 454.160 200.550 454.500 200.000 C 454.840 199.450 454.767 198.438 454.338 197.750 C 453.909 197.063 453.427 195.600 453.267 194.500 C 453.107 193.400 452.686 191.825 452.331 191.000 C 451.975 190.175 451.775 188.938 451.886 188.250 C 452.089 186.995 447.872 186.461 446.736 187.598 M 450.711 204.000 C 451.014 204.825 451.424 206.724 451.620 208.221 C 451.816 209.717 452.376 212.717 452.863 214.887 C 453.663 218.446 453.542 218.887 451.625 219.391 C 450.456 219.698 449.372 219.576 449.215 219.120 C 449.058 218.664 447.821 218.503 446.465 218.762 C 445.109 219.021 444.005 219.068 444.012 218.867 C 444.018 218.665 444.671 216.069 445.461 213.098 C 446.252 210.128 446.850 207.428 446.791 207.098 C 446.731 206.769 446.979 205.713 447.341 204.750 C 447.704 203.788 448.277 202.213 448.616 201.250 C 449.123 199.811 449.315 199.766 449.696 201.000 C 449.950 201.825 450.407 203.175 450.711 204.000 "/></g>
<g fill="#3E70ACFE" stroke="#3E70ACFE">
<path d="M 357.554 190.250 C 357.837 193.578 361.773 208.737 362.800 210.455 C 363.114 210.980 363.520 212.780 363.703 214.455 C 363.885 216.130 364.429 217.634 364.911 217.798 C 365.393 217.962 365.558 218.974 365.277 220.048 C 364.996 221.122 365.255 222.000 365.852 222.000 C 366.449 222.000 366.678 222.675 366.362 223.500 C 366.045 224.326 366.332 225.000 367.000 225.000 C 367.668 225.000 367.975 225.622 367.683 226.382 C 366.790 228.711 369.028 235.536 371.111 236.837 C 372.676 237.815 373.340 237.803 374.362 236.781 C 375.575 235.568 380.221 220.115 379.909 218.331 C 379.829 217.874 379.851 217.725 379.958 218.000 C 380.161 218.520 387.883 191.148 387.957 189.643 C 387.981 189.172 387.213 189.060 386.250 189.395 C 384.791 189.903 384.823 189.755 386.441 188.502 C 388.291 187.071 388.238 187.000 385.313 187.000 C 382.553 187.000 382.138 187.415 381.198 191.118 C 380.623 193.382 380.392 195.857 380.683 196.618 C 380.975 197.378 380.668 198.000 380.000 198.000 C 379.332 198.000 379.040 198.661 379.349 199.468 C 379.659 200.275 379.452 201.221 378.888 201.569 C 378.325 201.917 378.094 202.803 378.376 203.537 C 378.657 204.270 378.471 205.012 377.961 205.185 C 377.451 205.358 376.861 206.850 376.649 208.500 C 376.437 210.150 375.955 212.225 375.578 213.110 C 375.202 213.996 374.731 215.796 374.532 217.110 C 374.333 218.425 373.851 220.523 373.462 221.773 C 372.808 223.875 372.659 223.916 371.489 222.315 C 370.792 221.363 370.428 220.048 370.679 219.393 C 370.931 218.738 370.648 217.901 370.052 217.532 C 369.455 217.163 369.226 216.443 369.543 215.931 C 369.859 215.419 369.775 214.445 369.356 213.768 C 368.937 213.090 368.532 211.852 368.455 211.018 C 368.029 206.369 366.716 201.000 366.006 201.000 C 365.556 201.000 365.423 200.100 365.710 199.000 C 365.998 197.900 365.843 196.999 365.367 196.998 C 364.890 196.997 364.399 195.559 364.275 193.802 C 364.151 192.045 363.310 190.193 362.405 189.687 C 361.053 188.930 361.004 188.612 362.130 187.898 C 363.076 187.299 362.537 187.026 360.389 187.015 C 357.487 187.001 357.297 187.218 357.554 190.250 "/></g>
</svg>